<mxfile host="Electron" modified="2023-05-20T18:53:21.690Z" agent="Mozilla/5.0 (Windows NT 10.0; Win64; x64) AppleWebKit/537.36 (KHTML, like Gecko) draw.io/21.2.8 Chrome/112.0.5615.165 Electron/24.2.0 Safari/537.36" etag="IvdQdVcbzKFUAISoIuPM" version="21.2.8" type="device">
  <diagram name="Page-1" id="TDozWoPf6OkSsA9o6k1W">
    <mxGraphModel dx="1105" dy="654" grid="1" gridSize="10" guides="1" tooltips="1" connect="1" arrows="1" fold="1" page="1" pageScale="1" pageWidth="1169" pageHeight="827" math="0" shadow="0">
      <root>
        <mxCell id="0" />
        <mxCell id="1" parent="0" />
        <UserObject label="&lt;div style=&quot;font-size: 11.27px;&quot;&gt;&lt;font style=&quot;font-size: 11.27px; direction: ltr; letter-spacing: 0px; line-height: 120%; opacity: 1;&quot;&gt;Start&lt;/font&gt;&lt;/div&gt;" Function="EN_DIO_Error_T DIO_init(uint8_t pinNumber, EN_DIO_PORT_T portNumber, EN_DIO_DIRECTION_T direction);" tags="Flowchart" id="39hNvPk7gfA9X1R28z6d-3">
          <mxCell style="verticalAlign=middle;align=center;overflow=width;vsdxID=30;fillColor=#dae8fc;shape=stencil(tVLREoIgEPwaHnEQxsl3s/9gEpSJwDko7e+DsEkze2l627vdu5uFRaxyHe8FosR5sCcxqMZ3iO0Rpcp0ApQPCLEasUpaEC3Yi2lS3fOojOhsr3HDmObyMtsVcYqS29Qh5FEfklwrM5OXeUa/yjkcAwfr7TDpiyTfXvjkMR+Vw2A998qaBac5tAKHU1hq3i4oNwjRr9ofvayt/+Rk+yX/4iWA159KpXWKxJx/z0Bopfyw+g4=);strokeColor=#6c8ebf;spacingTop=-1;spacingBottom=-1;spacingLeft=-1;spacingRight=-1;points=[[0.5,1,0],[0.5,0,0],[0,0.5,0],[1,0.5,0]];labelBackgroundColor=none;rounded=1;html=1;whiteSpace=wrap;fontFamily=Calibri;fontSize=11.27;" parent="1" vertex="1">
            <mxGeometry x="152.5" width="101" height="38" as="geometry" />
          </mxCell>
        </UserObject>
        <mxCell id="39hNvPk7gfA9X1R28z6d-4" value="&lt;div style=&quot;font-size: 11.27px;&quot;&gt;&lt;font style=&quot;font-size: 11.27px;&quot;&gt;&lt;br style=&quot;font-size: 11.27px;&quot;&gt;&lt;/font&gt;&lt;/div&gt;&lt;div style=&quot;font-size: 11.27px;&quot;&gt;&lt;font style=&quot;font-size: 11.27px;&quot;&gt; Uchar8_t elementIndex = 0;&lt;/font&gt;&lt;/div&gt;&lt;div style=&quot;font-size: 11.27px;&quot;&gt;&lt;br style=&quot;font-size: 11.27px;&quot;&gt;&lt;/div&gt;" style="rounded=0;whiteSpace=wrap;html=1;fontSize=11.27;fillColor=#d5e8d4;strokeColor=#82b366;fontFamily=Calibri;" parent="1" vertex="1">
          <mxGeometry x="150" y="80" width="103.5" height="44" as="geometry" />
        </mxCell>
        <UserObject label="" Function="EN_DIO_Error_T DIO_init(uint8_t pinNumber, EN_DIO_PORT_T portNumber, EN_DIO_DIRECTION_T direction);" tags="Flowchart" id="39hNvPk7gfA9X1R28z6d-5">
          <mxCell style="vsdxID=219;fillColor=#fff2cc;shape=stencil(UzV2Ls5ILEhVNTIoLinKz04tz0wpyVA1dlE1MsrMy0gtyiwBslSNXVWNndPyi1LTi/JL81Ig/IJEkEoQKze/DGRCBUSfAUiHkUElhGcK4bpBVOZk5iGpNEVVikeloQHZpsK0YlWLz1QgA+HFtMycHEgIIcujBwlQCBKcxq4A);strokeColor=#d6b656;spacingTop=-1;spacingBottom=-1;spacingLeft=-1;spacingRight=-1;points=[[0,0.5,0],[1,0.5,0],[0.5,0,0],[0.5,1,0]];labelBackgroundColor=none;rounded=1;html=1;whiteSpace=wrap;fontFamily=Calibri;fontSize=11.27;" parent="1" vertex="1">
            <mxGeometry x="126.75" y="190" width="150" height="110" as="geometry" />
          </mxCell>
        </UserObject>
        <mxCell id="39hNvPk7gfA9X1R28z6d-6" value="&lt;div style=&quot;font-size: 11.27px;&quot;&gt;elementIndex &amp;lt; EXT_INTERRUPT_PINS&lt;br style=&quot;font-size: 11.27px;&quot;&gt;&lt;/div&gt;" style="text;vsdxID=219;fillColor=none;gradientColor=none;strokeColor=none;spacingTop=-1;spacingBottom=-1;spacingLeft=-1;spacingRight=-1;points=[[0,0.5,0],[1,0.5,0],[0.5,0,0],[0.5,1,0]];labelBackgroundColor=none;rounded=1;html=1;whiteSpace=wrap;verticalAlign=middle;align=center;overflow=width;;html=1;fontColor=#000000;fontFamily=Calibri;fontSize=11.27;" parent="39hNvPk7gfA9X1R28z6d-5" vertex="1">
          <mxGeometry x="21.29" y="17.754" width="107.42" height="74.492" as="geometry" />
        </mxCell>
        <UserObject label="" Function="EN_DIO_Error_T DIO_init(uint8_t pinNumber, EN_DIO_PORT_T portNumber, EN_DIO_DIRECTION_T direction);" tags="Flowchart" id="39hNvPk7gfA9X1R28z6d-7">
          <mxCell style="vsdxID=219;fillColor=#fff2cc;shape=stencil(UzV2Ls5ILEhVNTIoLinKz04tz0wpyVA1dlE1MsrMy0gtyiwBslSNXVWNndPyi1LTi/JL81Ig/IJEkEoQKze/DGRCBUSfAUiHkUElhGcK4bpBVOZk5iGpNEVVikeloQHZpsK0YlWLz1QgA+HFtMycHEgIIcujBwlQCBKcxq4A);strokeColor=#d6b656;spacingTop=-1;spacingBottom=-1;spacingLeft=-1;spacingRight=-1;points=[[0,0.5,0],[1,0.5,0],[0.5,0,0],[0.5,1,0]];labelBackgroundColor=none;rounded=1;html=1;whiteSpace=wrap;fontFamily=Calibri;fontSize=11.27;" parent="1" vertex="1">
            <mxGeometry x="6.75" y="360" width="390" height="170" as="geometry" />
          </mxCell>
        </UserObject>
        <mxCell id="39hNvPk7gfA9X1R28z6d-8" value="&lt;div style=&quot;font-size: 11.27px;&quot;&gt;A_interruptConfig[elementIndex].EXTERNAL_INTERRUPRT_Number&lt;br style=&quot;font-size: 11.27px;&quot;&gt;&lt;/div&gt;" style="text;vsdxID=219;fillColor=none;gradientColor=none;strokeColor=none;spacingTop=-1;spacingBottom=-1;spacingLeft=-1;spacingRight=-1;points=[[0,0.5,0],[1,0.5,0],[0.5,0,0],[0.5,1,0]];labelBackgroundColor=none;rounded=1;html=1;whiteSpace=wrap;verticalAlign=middle;align=center;overflow=width;;html=1;fontColor=#000000;fontFamily=Calibri;fontSize=11.27;" parent="39hNvPk7gfA9X1R28z6d-7" vertex="1">
          <mxGeometry x="30.07412844036698" y="21.52347826086956" width="329.8612844036698" height="126.95304347826085" as="geometry" />
        </mxCell>
        <mxCell id="3Z-5N2q1W3g1UvTkOR-N-1" value="" style="endArrow=classic;html=1;rounded=0;fontSize=11.27;startSize=8;endSize=8;curved=1;exitX=0.5;exitY=1;exitDx=0;exitDy=0;exitPerimeter=0;fontFamily=Calibri;" parent="1" source="39hNvPk7gfA9X1R28z6d-3" target="39hNvPk7gfA9X1R28z6d-4" edge="1">
          <mxGeometry width="50" height="50" relative="1" as="geometry">
            <mxPoint x="250" y="210" as="sourcePoint" />
            <mxPoint x="300" y="160" as="targetPoint" />
          </mxGeometry>
        </mxCell>
        <mxCell id="3Z-5N2q1W3g1UvTkOR-N-2" value="" style="endArrow=classic;html=1;rounded=0;fontSize=11.27;startSize=8;endSize=8;curved=1;exitX=0.5;exitY=1;exitDx=0;exitDy=0;entryX=0.5;entryY=0;entryDx=0;entryDy=0;entryPerimeter=0;fontFamily=Calibri;" parent="1" source="39hNvPk7gfA9X1R28z6d-4" target="39hNvPk7gfA9X1R28z6d-5" edge="1">
          <mxGeometry width="50" height="50" relative="1" as="geometry">
            <mxPoint x="250" y="210" as="sourcePoint" />
            <mxPoint x="300" y="160" as="targetPoint" />
          </mxGeometry>
        </mxCell>
        <mxCell id="3Z-5N2q1W3g1UvTkOR-N-3" value="" style="endArrow=classic;html=1;rounded=0;fontSize=11.27;startSize=8;endSize=8;curved=1;exitX=0.5;exitY=1;exitDx=0;exitDy=0;exitPerimeter=0;entryX=0.5;entryY=0;entryDx=0;entryDy=0;entryPerimeter=0;fontFamily=Calibri;" parent="1" source="39hNvPk7gfA9X1R28z6d-5" target="39hNvPk7gfA9X1R28z6d-7" edge="1">
          <mxGeometry width="50" height="50" relative="1" as="geometry">
            <mxPoint x="250" y="450" as="sourcePoint" />
            <mxPoint x="300" y="400" as="targetPoint" />
          </mxGeometry>
        </mxCell>
        <mxCell id="3Z-5N2q1W3g1UvTkOR-N-4" value="" style="endArrow=classic;html=1;rounded=0;fontSize=11.27;startSize=8;endSize=8;exitX=0.5;exitY=1;exitDx=0;exitDy=0;exitPerimeter=0;edgeStyle=orthogonalEdgeStyle;fontFamily=Calibri;entryX=0;entryY=0.5;entryDx=0;entryDy=0;" parent="1" source="39hNvPk7gfA9X1R28z6d-7" target="ho0VmYyUdKLU39V0wAfK-1" edge="1">
          <mxGeometry width="50" height="50" relative="1" as="geometry">
            <mxPoint x="280" y="570" as="sourcePoint" />
            <mxPoint x="430" y="635" as="targetPoint" />
            <Array as="points">
              <mxPoint x="200" y="530" />
              <mxPoint x="200" y="633" />
            </Array>
          </mxGeometry>
        </mxCell>
        <mxCell id="3Z-5N2q1W3g1UvTkOR-N-5" value="Case : EXT0_INTERRUPTS" style="text;html=1;strokeColor=none;fillColor=none;align=center;verticalAlign=middle;whiteSpace=wrap;rounded=0;fontSize=11;fontFamily=Calibri;" parent="1" vertex="1">
          <mxGeometry x="250" y="590" width="130" height="30" as="geometry" />
        </mxCell>
        <mxCell id="3Z-5N2q1W3g1UvTkOR-N-32" value="" style="endArrow=classic;html=1;rounded=0;fontSize=11.27;startSize=8;endSize=8;edgeStyle=orthogonalEdgeStyle;exitX=0.388;exitY=0.908;exitDx=0;exitDy=0;exitPerimeter=0;fontFamily=Calibri;entryX=0;entryY=0.435;entryDx=0;entryDy=0;entryPerimeter=0;" parent="1" source="39hNvPk7gfA9X1R28z6d-7" target="ho0VmYyUdKLU39V0wAfK-2" edge="1">
          <mxGeometry width="50" height="50" relative="1" as="geometry">
            <mxPoint x="120" y="760" as="sourcePoint" />
            <mxPoint x="430" y="780" as="targetPoint" />
            <Array as="points">
              <mxPoint x="160" y="514" />
              <mxPoint x="160" y="780" />
            </Array>
          </mxGeometry>
        </mxCell>
        <mxCell id="3Z-5N2q1W3g1UvTkOR-N-33" value="Case : EXT1_INTERRUPTS" style="text;html=1;strokeColor=none;fillColor=none;align=center;verticalAlign=middle;whiteSpace=wrap;rounded=0;fontSize=11;fontFamily=Calibri;" parent="1" vertex="1">
          <mxGeometry x="250" y="730" width="130" height="30" as="geometry" />
        </mxCell>
        <mxCell id="3Z-5N2q1W3g1UvTkOR-N-60" value="" style="endArrow=classic;html=1;rounded=0;fontSize=11.27;startSize=8;endSize=8;edgeStyle=orthogonalEdgeStyle;exitX=0.356;exitY=0.862;exitDx=0;exitDy=0;exitPerimeter=0;fontFamily=Calibri;entryX=-0.026;entryY=0.644;entryDx=0;entryDy=0;entryPerimeter=0;" parent="1" source="39hNvPk7gfA9X1R28z6d-7" edge="1" target="ho0VmYyUdKLU39V0wAfK-4">
          <mxGeometry width="50" height="50" relative="1" as="geometry">
            <mxPoint x="70" y="900" as="sourcePoint" />
            <mxPoint x="380" y="920" as="targetPoint" />
            <Array as="points">
              <mxPoint x="146" y="510" />
              <mxPoint x="110" y="510" />
              <mxPoint x="110" y="920" />
              <mxPoint x="360" y="920" />
            </Array>
          </mxGeometry>
        </mxCell>
        <mxCell id="3Z-5N2q1W3g1UvTkOR-N-61" value="Case : EXT2_INTERRUPTS" style="text;html=1;strokeColor=none;fillColor=none;align=center;verticalAlign=middle;whiteSpace=wrap;rounded=0;fontSize=11;fontFamily=Calibri;" parent="1" vertex="1">
          <mxGeometry x="253.5" y="850" width="130" height="30" as="geometry" />
        </mxCell>
        <mxCell id="3Z-5N2q1W3g1UvTkOR-N-106" value="NO" style="text;html=1;strokeColor=none;fillColor=none;align=center;verticalAlign=middle;whiteSpace=wrap;rounded=0;fontSize=11;fontFamily=Calibri;" parent="1" vertex="1">
          <mxGeometry x="268.5" y="210" width="60" height="30" as="geometry" />
        </mxCell>
        <mxCell id="3Z-5N2q1W3g1UvTkOR-N-107" value="YES" style="text;html=1;strokeColor=none;fillColor=none;align=center;verticalAlign=middle;whiteSpace=wrap;rounded=0;fontSize=11;fontFamily=Calibri;" parent="1" vertex="1">
          <mxGeometry x="140" y="310" width="60" height="30" as="geometry" />
        </mxCell>
        <mxCell id="ho0VmYyUdKLU39V0wAfK-1" value="&lt;font face=&quot;Calibri&quot; style=&quot;font-size: 11px;&quot;&gt;EXT_vINTERRUPT_setSenseControl_EXT0&lt;/font&gt;" style="shape=process;whiteSpace=wrap;html=1;backgroundOutline=1;fontSize=16;fillColor=#ffe6cc;strokeColor=#d79b00;" vertex="1" parent="1">
          <mxGeometry x="440" y="610" width="240" height="46" as="geometry" />
        </mxCell>
        <mxCell id="ho0VmYyUdKLU39V0wAfK-2" value="&lt;font face=&quot;Calibri&quot; style=&quot;font-size: 11px;&quot;&gt;EXT_vINTERRUPT_setSenseControl_EXT1&lt;/font&gt;" style="shape=process;whiteSpace=wrap;html=1;backgroundOutline=1;fontSize=16;fillColor=#ffe6cc;strokeColor=#d79b00;" vertex="1" parent="1">
          <mxGeometry x="440" y="760" width="240" height="46" as="geometry" />
        </mxCell>
        <mxCell id="ho0VmYyUdKLU39V0wAfK-4" value="&lt;font face=&quot;Calibri&quot; style=&quot;font-size: 11px;&quot;&gt;EXT_vINTERRUPT_setSenseControl_EXT2&lt;/font&gt;" style="shape=process;whiteSpace=wrap;html=1;backgroundOutline=1;fontSize=16;fillColor=#ffe6cc;strokeColor=#d79b00;" vertex="1" parent="1">
          <mxGeometry x="440" y="890" width="240" height="46" as="geometry" />
        </mxCell>
        <UserObject label="&lt;div style=&quot;font-size: 1px&quot;&gt;&lt;font style=&quot;font-size: 11.29px; direction: ltr; letter-spacing: 0px; line-height: 120%; opacity: 1;&quot;&gt;Stop&lt;/font&gt;&lt;/div&gt;" Function="EN_DIO_Error_T DIO_init(uint8_t pinNumber, EN_DIO_PORT_T portNumber, EN_DIO_DIRECTION_T direction);" tags="Flowchart" id="ho0VmYyUdKLU39V0wAfK-5">
          <mxCell style="verticalAlign=middle;align=center;overflow=width;vsdxID=30;fillColor=#dae8fc;shape=stencil(tVLREoIgEPwaHnEQxsl3s/9gEpSJwDko7e+DsEkze2l627vdu5uFRaxyHe8FosR5sCcxqMZ3iO0Rpcp0ApQPCLEasUpaEC3Yi2lS3fOojOhsr3HDmObyMtsVcYqS29Qh5FEfklwrM5OXeUa/yjkcAwfr7TDpiyTfXvjkMR+Vw2A998qaBac5tAKHU1hq3i4oNwjRr9ofvayt/+Rk+yX/4iWA159KpXWKxJx/z0Bopfyw+g4=);strokeColor=#6c8ebf;spacingTop=-1;spacingBottom=-1;spacingLeft=-1;spacingRight=-1;points=[[0.5,1,0],[0.5,0,0],[0,0.5,0],[1,0.5,0]];labelBackgroundColor=none;rounded=1;html=1;whiteSpace=wrap;fontFamily=Calibri;" vertex="1" parent="1">
            <mxGeometry x="1000" y="520" width="101" height="38" as="geometry" />
          </mxCell>
        </UserObject>
        <mxCell id="ho0VmYyUdKLU39V0wAfK-9" value="" style="endArrow=classic;html=1;rounded=0;fontSize=12;startSize=8;endSize=8;exitX=1;exitY=0.5;exitDx=0;exitDy=0;exitPerimeter=0;entryX=0.432;entryY=-0.042;entryDx=0;entryDy=0;entryPerimeter=0;edgeStyle=orthogonalEdgeStyle;" edge="1" parent="1" source="39hNvPk7gfA9X1R28z6d-5" target="ho0VmYyUdKLU39V0wAfK-5">
          <mxGeometry width="50" height="50" relative="1" as="geometry">
            <mxPoint x="510" y="360" as="sourcePoint" />
            <mxPoint x="560" y="310" as="targetPoint" />
            <Array as="points">
              <mxPoint x="1044" y="245" />
            </Array>
          </mxGeometry>
        </mxCell>
        <mxCell id="ho0VmYyUdKLU39V0wAfK-11" value="&lt;font face=&quot;Calibri&quot; style=&quot;font-size: 11px;&quot;&gt;elementIndex++&lt;/font&gt;" style="rounded=0;whiteSpace=wrap;html=1;fontSize=16;fillColor=#d5e8d4;strokeColor=#82b366;" vertex="1" parent="1">
          <mxGeometry x="800" y="610" width="103.5" height="44" as="geometry" />
        </mxCell>
        <mxCell id="ho0VmYyUdKLU39V0wAfK-12" value="&lt;font face=&quot;Calibri&quot; style=&quot;font-size: 11px;&quot;&gt;elementIndex++&lt;/font&gt;" style="rounded=0;whiteSpace=wrap;html=1;fontSize=16;fillColor=#d5e8d4;strokeColor=#82b366;" vertex="1" parent="1">
          <mxGeometry x="800" y="760" width="103.5" height="44" as="geometry" />
        </mxCell>
        <mxCell id="ho0VmYyUdKLU39V0wAfK-13" value="&lt;font face=&quot;Calibri&quot; style=&quot;font-size: 11px;&quot;&gt;elementIndex++&lt;/font&gt;" style="rounded=0;whiteSpace=wrap;html=1;fontSize=16;fillColor=#d5e8d4;strokeColor=#82b366;" vertex="1" parent="1">
          <mxGeometry x="800" y="890" width="103.5" height="44" as="geometry" />
        </mxCell>
        <mxCell id="ho0VmYyUdKLU39V0wAfK-14" value="" style="endArrow=classic;html=1;rounded=0;fontSize=12;startSize=8;endSize=8;exitX=1;exitY=0.5;exitDx=0;exitDy=0;entryX=0;entryY=0.5;entryDx=0;entryDy=0;" edge="1" parent="1" source="ho0VmYyUdKLU39V0wAfK-1" target="ho0VmYyUdKLU39V0wAfK-11">
          <mxGeometry width="50" height="50" relative="1" as="geometry">
            <mxPoint x="550" y="780" as="sourcePoint" />
            <mxPoint x="600" y="730" as="targetPoint" />
          </mxGeometry>
        </mxCell>
        <mxCell id="ho0VmYyUdKLU39V0wAfK-15" value="" style="endArrow=classic;html=1;rounded=0;fontSize=12;startSize=8;endSize=8;curved=1;exitX=1;exitY=0.5;exitDx=0;exitDy=0;entryX=0;entryY=0.5;entryDx=0;entryDy=0;" edge="1" parent="1" source="ho0VmYyUdKLU39V0wAfK-2" target="ho0VmYyUdKLU39V0wAfK-12">
          <mxGeometry width="50" height="50" relative="1" as="geometry">
            <mxPoint x="550" y="780" as="sourcePoint" />
            <mxPoint x="600" y="730" as="targetPoint" />
          </mxGeometry>
        </mxCell>
        <mxCell id="ho0VmYyUdKLU39V0wAfK-16" value="" style="endArrow=classic;html=1;rounded=0;fontSize=12;startSize=8;endSize=8;curved=1;exitX=1;exitY=0.5;exitDx=0;exitDy=0;entryX=0;entryY=0.5;entryDx=0;entryDy=0;" edge="1" parent="1" source="ho0VmYyUdKLU39V0wAfK-4" target="ho0VmYyUdKLU39V0wAfK-13">
          <mxGeometry width="50" height="50" relative="1" as="geometry">
            <mxPoint x="550" y="780" as="sourcePoint" />
            <mxPoint x="600" y="730" as="targetPoint" />
          </mxGeometry>
        </mxCell>
        <mxCell id="ho0VmYyUdKLU39V0wAfK-18" value="" style="endArrow=classic;html=1;rounded=0;fontSize=12;startSize=8;endSize=8;exitX=1;exitY=0.5;exitDx=0;exitDy=0;entryX=0.5;entryY=1;entryDx=0;entryDy=0;entryPerimeter=0;edgeStyle=orthogonalEdgeStyle;" edge="1" parent="1" source="ho0VmYyUdKLU39V0wAfK-11" target="ho0VmYyUdKLU39V0wAfK-5">
          <mxGeometry width="50" height="50" relative="1" as="geometry">
            <mxPoint x="550" y="680" as="sourcePoint" />
            <mxPoint x="600" y="630" as="targetPoint" />
          </mxGeometry>
        </mxCell>
        <mxCell id="ho0VmYyUdKLU39V0wAfK-19" value="" style="endArrow=classic;html=1;rounded=0;fontSize=12;startSize=8;endSize=8;exitX=1;exitY=0.5;exitDx=0;exitDy=0;entryX=0.5;entryY=1;entryDx=0;entryDy=0;entryPerimeter=0;edgeStyle=orthogonalEdgeStyle;" edge="1" parent="1" source="ho0VmYyUdKLU39V0wAfK-12" target="ho0VmYyUdKLU39V0wAfK-5">
          <mxGeometry width="50" height="50" relative="1" as="geometry">
            <mxPoint x="550" y="680" as="sourcePoint" />
            <mxPoint x="600" y="630" as="targetPoint" />
          </mxGeometry>
        </mxCell>
        <mxCell id="ho0VmYyUdKLU39V0wAfK-20" value="" style="endArrow=classic;html=1;rounded=0;fontSize=12;startSize=8;endSize=8;exitX=1;exitY=0.5;exitDx=0;exitDy=0;entryX=0.5;entryY=1;entryDx=0;entryDy=0;entryPerimeter=0;edgeStyle=orthogonalEdgeStyle;" edge="1" parent="1" source="ho0VmYyUdKLU39V0wAfK-13" target="ho0VmYyUdKLU39V0wAfK-5">
          <mxGeometry width="50" height="50" relative="1" as="geometry">
            <mxPoint x="550" y="680" as="sourcePoint" />
            <mxPoint x="600" y="630" as="targetPoint" />
          </mxGeometry>
        </mxCell>
      </root>
    </mxGraphModel>
  </diagram>
</mxfile>
